<svg version="1.1" id="_x32_" xmlns="http://www.w3.org/2000/svg" xmlns:xlink="http://www.w3.org/1999/xlink" viewBox="0 0 512 512" xml:space="preserve" fill="#000000"><g id="SVGRepo_bgCarrier" stroke-width="0"></g><g id="SVGRepo_tracerCarrier" stroke-linecap="round" stroke-linejoin="round"></g><g id="SVGRepo_iconCarrier"> <style type="text/css"> .st0{fill:<svg version="1.1" id="_x32_" xmlns="http://www.w3.org/2000/svg" xmlns:xlink="http://www.w3.org/1999/xlink" viewBox="0 0 512 512" xml:space="preserve" fill="#292929"><g id="SVGRepo_bgCarrier" stroke-width="0"></g><g id="SVGRepo_tracerCarrier" stroke-linecap="round" stroke-linejoin="round"></g><g id="SVGRepo_iconCarrier"> <style type="text/css"> .st0{fill:#292929;} </style> <g> <path class="st0" d="M432.302,147.948c-19.821-19.867-47.435-32.208-77.724-32.202h-88.664 c-30.289-0.007-57.903,12.335-77.732,32.194c-19.851,19.82-32.208,47.434-32.194,77.732v124.134 c0,44.374,16.992,84.84,44.76,114.251c27.691,29.418,66.593,47.959,109.495,47.943c42.901,0.016,81.802-18.525,109.509-47.943 c27.753-29.411,44.752-69.877,44.752-114.251V225.672C464.511,195.374,452.169,167.76,432.302,147.948z M422.01,349.806 c0,33.474-12.782,63.478-33.157,85.087c-20.445,21.601-48.052,34.607-78.611,34.622c-30.552-0.015-58.159-13.021-78.596-34.622 c-20.391-21.609-33.172-51.621-33.172-85.087v-60.031H422.01V349.806z M422.01,259.431H310.758V158.232h43.82 c18.687,0.015,35.416,7.516,47.689,19.751c12.234,12.273,19.736,28.995,19.743,47.689V259.431z"></path> <rect x="216.683" y="0" class="st0" width="24.276" height="69.799"></rect> <polygon class="st0" points="330.001,30.359 308.969,18.217 274.07,78.672 295.101,90.808 "></polygon> <polygon class="st0" points="47.503,193.463 117.295,193.463 117.295,169.187 47.497,169.179 "></polygon> <rect x="67.116" y="95.968" transform="matrix(-0.866 -0.5 0.5 -0.866 136.3088 252.7445)" class="st0" width="69.8" height="24.284"></rect> <polygon class="st0" points="183.572,78.672 148.679,18.217 127.649,30.367 162.541,90.808 "></polygon> </g> </g></svg>;} </style> <g> <path class="st0" d="M246.086,115.746h-88.671c-30.282-0.007-57.904,12.335-77.725,32.202 c-19.859,19.813-32.208,47.427-32.193,77.724v124.134c0,44.374,16.991,84.84,44.752,114.251 c27.699,29.418,66.6,47.959,109.502,47.943c42.901,0.016,81.802-18.525,109.502-47.943c27.761-29.411,44.76-69.877,44.76-114.251 V225.672c0.008-30.298-12.343-57.912-32.202-77.732C303.983,128.081,276.368,115.739,246.086,115.746z M89.983,225.672 c0.015-18.694,7.516-35.416,19.75-47.689c12.265-12.234,28.995-19.736,47.682-19.751h43.819v101.199H89.983V225.672z M313.526,349.806c0,33.466-12.79,63.478-33.172,85.087c-20.438,21.601-48.044,34.607-78.603,34.622 c-30.559-0.015-58.158-13.021-78.604-34.622c-20.375-21.609-33.164-51.613-33.164-85.087v-60.031h223.544V349.806z"></path> <rect x="271.033" y="0" class="st0" width="24.284" height="69.799"></rect> <polygon class="st0" points="237.93,78.672 203.03,18.217 181.999,30.359 216.899,90.808 "></polygon> <polygon class="st0" points="394.704,169.187 394.704,193.463 464.496,193.463 464.503,169.179 "></polygon> <polygon class="st0" points="434.137,80.146 373.689,115.045 385.831,136.076 446.272,101.176 "></polygon> <polygon class="st0" points="384.343,30.367 363.321,18.217 328.421,78.672 349.451,90.808 "></polygon> </g> </g></svg>